<svg width="215" height="215" viewBox="0 0 215 215" fill="none" xmlns="http://www.w3.org/2000/svg">
<path d="M30.6 0C13.7222 0 0 13.7222 0 30.6V183.6C0 200.478 13.7222 214.2 30.6 214.2H183.6C200.478 214.2 214.2 200.478 214.2 183.6V30.6C214.2 13.7222 200.478 0 183.6 0H30.6ZM61.2 38.25C73.8703 38.25 84.15 48.5297 84.15 61.2C84.15 73.8703 73.8703 84.15 61.2 84.15C48.5297 84.15 38.25 73.8703 38.25 61.2C38.25 48.5297 48.5297 38.25 61.2 38.25ZM130.05 91.8C134.066 91.8 137.748 93.9038 139.852 97.2984L181.927 166.148C184.078 169.687 184.174 174.133 182.166 177.767C180.158 181.401 176.285 183.6 172.125 183.6H42.075C37.8197 183.6 33.8512 181.209 31.8909 177.432C29.9306 173.655 30.2175 169.065 32.6559 165.575L59.4309 127.325C61.5825 124.265 65.0728 122.448 68.85 122.448C72.6272 122.448 76.1175 124.265 78.2691 127.325L90.8916 145.398L120.248 97.3463C122.352 93.9516 126.034 91.8478 130.05 91.8478V91.8Z" fill="#375CEE"/>
</svg>
